<svg width="46" height="47" viewBox="0 0 46 47" fill="none" xmlns="http://www.w3.org/2000/svg">
<path d="M0 8C0 3.58172 3.58172 0 8 0H38C42.4183 0 46 3.58172 46 8V39C46 43.4183 42.4183 47 38 47H8C3.58172 47 0 43.4183 0 39V8Z" fill="#D4E8F6"/>
<rect width="26" height="27" transform="translate(10 10)" fill="#D4E8F6"/>
<path d="M19.5386 10H26.2647L36 19.7294H29.1952L19.5386 10Z" fill="#1782CF"/>
<path d="M14.7593 18.6353H21.4854L31.2207 28.3647H24.4159L14.7593 18.6353Z" fill="#1782CF"/>
<path d="M10 27.2706H16.7262L26.4614 37H19.6566L10 27.2706Z" fill="#1782CF"/>
</svg>
